#FILENAME=a710d30d
# xmcd CD database file
# Copyright (C) 1995-1998 Ti Kan
#
# Track frame offsets:
#	150
#	11390
#	22910
#	40005
#	70500
#	96900
#	136962
#	168307
#	183387
#	200335
#	212155
#	241780
#	284475
#
# Disc length: 4309 seconds
#
# Revision: 34552892
# Submitted via:  xmcd 2.0
#
DISCID=a710d30d
DTITLE=Pink Floyd / Pulse (disc 2)
TTITLE0=Speak To Me
TTITLE1=Breathe
TTITLE2=On The Run
TTITLE3=Time
TTITLE4=The Great Gig In The Sky
TTITLE5=Money
TTITLE6=Us And Them
TTITLE7=Any Colour You Like
TTITLE8=Brain Damage
TTITLE9=Eclipse
TTITLE10=Wish You Were Here
TTITLE11=Comfortably Numb
TTITLE12=Run Like Hell
EXTD=1995 Pink Floyd Music Ltd\nSony Music Entertainment Inc.\nMfd. by Colum
EXTD=bia Records C2K 67065 67096/67097\n\nPink Floyd:\nDavid Gilmour\tguitar
EXTD=s, vocals\nNick Mason\tdrums\nRichard Wright\tkeyboards, vocals\n\nSam 
EXTD=Brown\tbacking vocals\nJon Carin\t\tkeyboards, vocals\nClaudia Fontaine
EXTD=\tbacking vocals\nDurga McBroom\tbacking vocals\nDick Parry\tsaxophones
EXTD=\nGuy Pratt\t\tbass, vocals\nTim Renwick\tguitars, vocals\nGary Wallis\
EXTD=tpercussion\n\nProduced by James Guthrie and David Gilmour\nRecorded an
EXTD=d mixed by James Guthrie\n\nAssistant engineer Sean O'Dwyer\nRecorded l
EXTD=ive in Europe and the U.K. with\nLe Voyageur II Mobile\nRecording 'equi
EXTD=pe: Rene Weis, Bernard 'Papy' Vainer\nRoger Robindore, Manu Dajee, Alai
EXTD=n Aboulker\n\nMixed at Astoria in Q Sound\nMastered by Doug Sax and Ron
EXTD= Lewter\nat The Mastering Lab\n\nEquipment Technicians\nPhil Taylor: Ba
EXTD=ckline chief and guitarsfor David Gilmour\nClive Brooks: Drums for Nick
EXTD= Mason\nSid Pryce:Bass guitars for Guy Pratt\nAndy Ledbetter: Keyboards
EXTD= for Richard Wright\n\tand Jon Carin\nAdey Wilson: Guitars for Tim Renw
EXTD=ick\nClint Lockyer: Percussion for Gary Wallis\n\nFront of the House Mi
EXTD=xer: Andy Jackson and Colin Norfield\nMonitor Mixer: Seth Goldman\n\nAl
EXTD=bum Cover Design: Storm Thorgerson\n\twith Jon Crossland and Finlay Cow
EXTD=an\n\nGraphics and Artwork: Peter Curzon with Julien Mills\nCover Photo
EXTD=graphy: Tony May and Andy Earl with\n\tRupert Truman andRobert Llewelly
EXTD=n\nComputer: Jason Reddy\nLive Photography: Jill Furmanovsky, Andy Earl
EXTD=,\n\tDennis O'Regan, Michael Dwomik, Tony May,\n\tDimo Safari, Lester C
EXTD=ohen, Claude Gassian\n\nWith Thanks to: Marc Brickman, Mark Fisher\n\ta
EXTD=nd Robbie Williams\n\tand all the crew who worked on the tour\n\tbetwee
EXTD=n March and October 1994\n\nManagement: Steve O'Rourke, EMKA Production
EXTD=s Ltd\nYEAR: 1999  ID3G:  17
EXTT0=Mason, Waters
EXTT1=Waters, Gilmour, Wright
EXTT2=Gilmour, Waters, Wright
EXTT3=Mason, Gilmour, Waters, Wright
EXTT4=Wright, Waters
EXTT5=Waters
EXTT6=Waters, Wright
EXTT7=Gilmour, Mason, Wright
EXTT8=Waters
EXTT9=Waters
EXTT10=Waters, Gilmour
EXTT11=Gilmour, Waters
EXTT12=Gilmour, Waters
PLAYORDER=
